<svg width="23" height="20" viewBox="0 0 23 20" fill="none" xmlns="http://www.w3.org/2000/svg">
<path d="M11.2536 15.2083C10.876 15.2083 10.5698 15.4881 10.5698 15.8333C10.5698 16.1785 10.876 16.4583 11.2536 16.4583H16.7247C17.606 16.4583 18.3204 15.8054 18.3204 15V4.99999C18.3204 4.19458 17.6059 3.54166 16.7247 3.54166H11.2536C10.876 3.54166 10.5698 3.82148 10.5698 4.16666C10.5698 4.51183 10.876 4.79166 11.2536 4.79166L16.7247 4.79166C16.8506 4.79166 16.9526 4.88493 16.9526 4.99999L16.9526 15C16.9526 15.115 16.8506 15.2083 16.7247 15.2083H11.2536Z" fill="#666666"/>
<path fill-rule="evenodd" clip-rule="evenodd" d="M3.27509 10.9293C3.27509 11.5046 3.78539 11.971 4.41488 11.971H8.62081C8.62676 12.0322 8.63299 12.0934 8.63949 12.1545L8.68876 12.6177C8.76392 13.3245 9.58512 13.7478 10.2858 13.4409C11.7759 12.7882 13.2154 11.8088 14.3584 10.7182C14.7817 10.3143 14.7817 9.67731 14.3584 9.27342L14.2679 9.18711C13.1249 8.09648 11.7759 7.20335 10.2858 6.55069C9.58512 6.24381 8.76392 6.66707 8.68876 7.37382L8.63949 7.83706C8.63299 7.89821 8.62676 7.95939 8.62081 8.02058L4.41488 8.02058C3.78539 8.02058 3.27509 8.48695 3.27509 9.06224V10.9293ZM9.93441 11.2756C9.89566 10.9614 9.60443 10.721 9.25488 10.721H4.64284L4.64284 9.27058H9.25488C9.61604 9.27058 9.91495 9.01391 9.93743 8.68448C9.95397 8.44208 9.9751 8.19988 10.0008 7.95798L10.0151 7.82353C11.2049 8.3839 12.2878 9.11741 13.2211 9.99579C12.8314 10.3625 12.4157 10.704 11.9769 11.0182C11.3649 11.4565 10.7081 11.8416 10.0151 12.168L10.0008 12.0336C9.9751 11.7917 9.95397 11.5495 9.93743 11.3071C9.93671 11.2965 9.9357 11.286 9.93441 11.2756Z" fill="#666666"/>
</svg>
