<svg xmlns="http://www.w3.org/2000/svg" fill='#FBAB7E' width="64" height="64" enable-background="new 0 0 64 64" viewBox="0 0 64 64" id="apartment"><path d="M57.625,51.583h-11.25v-3.708H49c3.446,0,6.25-2.804,6.25-6.25c0-2.03-0.973-3.885-2.595-5.048
		c0.146-0.384,0.22-0.789,0.22-1.202c0-1.575-1.053-2.918-2.563-3.411v-1.026c0-2.516-2.047-4.563-4.563-4.563
		s-4.563,2.047-4.563,4.563v1.026c-0.138,0.045-0.267,0.104-0.396,0.163V18.941l-10.669-8.68l-0.55,0.234
		c-0.003,0-0.005,0.001-0.007,0.002l-19.441,8.258v32.828H6.375c-0.553,0-1,0.448-1,1s0.447,1,1,1h3.749h30.667h16.834
		c0.553,0,1-0.448,1-1S58.178,51.583,57.625,51.583z M42.275,33.771l0.912-0.08v-2.753c0-1.413,1.149-2.563,2.563-2.563
		s2.563,1.149,2.563,2.563v2.753l0.912,0.08c0.941,0.083,1.65,0.772,1.65,1.604c0,0.416-0.188,0.737-0.345,0.934l-0.775,0.971
		l1.114,0.55c1.469,0.726,2.381,2.18,2.381,3.795c0,2.343-1.906,4.25-4.25,4.25h-2.625v-3.466l2.019-0.865
		c0.508-0.217,0.743-0.805,0.525-1.313c-0.217-0.508-0.809-0.742-1.313-0.525l-1.56,0.668l-0.955-3.629
		c-0.141-0.534-0.686-0.851-1.222-0.713c-0.534,0.141-0.853,0.688-0.712,1.222l1.217,4.624v3.997H41.75
		c-2.344,0-4.25-1.907-4.25-4.25c0-1.789,1.146-3.393,2.85-3.991l1.184-0.415l-0.668-1.061c-0.159-0.253-0.24-0.516-0.24-0.783
		C40.625,34.543,41.334,33.853,42.275,33.771z M28.958,31.206l-16.834,3.911v-3.631l16.834-5.251V31.206z M12.124,37.169
		l16.834-3.911v4.24l-16.834,3.054V37.169z M28.958,24.14l-16.834,5.251v-3.798l16.834-5.688V24.14z M12.124,42.585l16.834-3.054
		v4.246l-16.834,1.974V42.585z M28.958,12.928v4.872c-0.01,0.003-0.019,0-0.028,0.003l-16.806,5.679v-3.403L28.958,12.928z
		 M12.124,47.765l16.834-1.974v5.792H12.124V47.765z M30.958,51.583V13.52l7.833,6.373v14.441c-0.104,0.331-0.166,0.679-0.166,1.042
		c0,0.27,0.033,0.54,0.1,0.804c-1.964,1.087-3.225,3.164-3.225,5.446c0,2.376,1.334,4.446,3.291,5.503v4.455H30.958z M40.791,47.793
		c0.313,0.049,0.632,0.082,0.959,0.082h2.625v3.708h-3.584V47.793z"></path></svg>