<svg xmlns="http://www.w3.org/2000/svg" data-name="Camada 1" viewBox="0 0 100 100" id="Restaurant"><path d="M97.37,84.2l-29-29,.28,0L99.12,24.7l-4.24-4.24-29,29-13,1.43-41.8,41.8A3,3,0,0,1,6,90.56a3,3,0,0,1,.88-2.12l41.8-41.79,1.44-13,29-29L74.87.44,44.39,30.92l0,.28L17.07,3.91l-6,6a17.19,17.19,0,0,0,0,24.29L31.88,55,2.64,84.19A9,9,0,0,0,15.36,96.92L44.61,67.68,47.93,71l11.32.52,25.4,25.4A9,9,0,0,0,97.37,84.2Zm-82-54.28a11.19,11.19,0,0,1,0-15.8l1.72-1.72L43.51,38.84l-.56,5L36.13,50.7ZM93.13,92.68a3.08,3.08,0,0,1-4.24,0l-27-27.05-11.31-.52-1.68-1.68,6.83-6.82,5-.56,32.4,32.39A3,3,0,0,1,93.13,92.68Z" fill="#fbab7e" class="color000000 svgShape"></path><rect width="36.23" height="6" x="56.07" y="22.38" transform="rotate(-45 74.184 25.382)" fill="#fbab7e" class="color000000 svgShape"></rect></svg>