<svg xmlns="http://www.w3.org/2000/svg" xmlns:xlink="http://www.w3.org/1999/xlink" version="1.1" width="256" height="256" viewBox="0 0 256 256" xml:space="preserve">

<defs>
</defs>
<g style="stroke: none; stroke-width: 0; stroke-dasharray: none; stroke-linecap: butt; stroke-linejoin: miter; stroke-miterlimit: 10; fill: none; fill-rule: nonzero; opacity: 1;" transform="translate(1.4065934065934016 1.4065934065934016) scale(2.81 2.81)" >
	<path d="M 43.856 29.492 c -0.552 0 -1 -0.448 -1 -1 V 14.571 c 0 -1.559 -1.268 -2.827 -2.827 -2.827 h -3.363 c -1.559 0 -2.827 1.268 -2.827 2.827 v 13.921 c 0 0.552 -0.448 1 -1 1 s -1 -0.448 -1 -1 V 14.571 c 0 -2.662 2.165 -4.827 4.827 -4.827 h 3.363 c 2.662 0 4.827 2.165 4.827 4.827 v 13.921 C 44.856 29.044 44.409 29.492 43.856 29.492 z" style="stroke: none; stroke-width: 1; stroke-dasharray: none; stroke-linecap: butt; stroke-linejoin: miter; stroke-miterlimit: 10; fill: rgb(251,171,126); fill-rule: nonzero; opacity: 1;" transform=" matrix(1 0 0 1 0 0) " stroke-linecap="round" />
	<path d="M 26.333 11.745 H 15.317 c -0.552 0 -1 -0.448 -1 -1 s 0.448 -1 1 -1 h 11.016 c 0.552 0 1 0.448 1 1 S 26.885 11.745 26.333 11.745 z" style="stroke: none; stroke-width: 1; stroke-dasharray: none; stroke-linecap: butt; stroke-linejoin: miter; stroke-miterlimit: 10; fill: rgb(251,171,126); fill-rule: nonzero; opacity: 1;" transform=" matrix(1 0 0 1 0 0) " stroke-linecap="round" />
	<path d="M 20.825 29.492 c -0.552 0 -1 -0.448 -1 -1 V 10.745 c 0 -0.552 0.448 -1 1 -1 s 1 0.448 1 1 v 17.748 C 21.825 29.044 21.377 29.492 20.825 29.492 z" style="stroke: none; stroke-width: 1; stroke-dasharray: none; stroke-linecap: butt; stroke-linejoin: miter; stroke-miterlimit: 10; fill: rgb(251,171,126); fill-rule: nonzero; opacity: 1;" transform=" matrix(1 0 0 1 0 0) " stroke-linecap="round" />
	<path d="M 43.856 20.619 H 32.84 c -0.552 0 -1 -0.448 -1 -1 s 0.448 -1 1 -1 h 11.016 c 0.552 0 1 0.448 1 1 S 44.409 20.619 43.856 20.619 z" style="stroke: none; stroke-width: 1; stroke-dasharray: none; stroke-linecap: butt; stroke-linejoin: miter; stroke-miterlimit: 10; fill: rgb(251,171,126); fill-rule: nonzero; opacity: 1;" transform=" matrix(1 0 0 1 0 0) " stroke-linecap="round" />
	<path d="M 61.906 29.492 c -0.335 0 -0.661 -0.167 -0.851 -0.473 L 50.04 11.272 c -0.291 -0.469 -0.147 -1.086 0.322 -1.377 c 0.47 -0.292 1.086 -0.147 1.377 0.322 l 11.016 17.748 c 0.291 0.469 0.147 1.086 -0.322 1.377 C 62.269 29.444 62.086 29.492 61.906 29.492 z" style="stroke: none; stroke-width: 1; stroke-dasharray: none; stroke-linecap: butt; stroke-linejoin: miter; stroke-miterlimit: 10; fill: rgb(251,171,126); fill-rule: nonzero; opacity: 1;" transform=" matrix(1 0 0 1 0 0) " stroke-linecap="round" />
	<path d="M 50.889 29.492 c -0.18 0 -0.362 -0.048 -0.526 -0.15 c -0.47 -0.291 -0.613 -0.908 -0.322 -1.377 l 11.016 -17.748 c 0.291 -0.469 0.908 -0.614 1.377 -0.322 c 0.47 0.291 0.613 0.908 0.322 1.377 L 51.739 29.02 C 51.55 29.325 51.223 29.492 50.889 29.492 z" style="stroke: none; stroke-width: 1; stroke-dasharray: none; stroke-linecap: butt; stroke-linejoin: miter; stroke-miterlimit: 10; fill: rgb(251,171,126); fill-rule: nonzero; opacity: 1;" transform=" matrix(1 0 0 1 0 0) " stroke-linecap="round" />
	<path d="M 71.479 39.748 c -0.553 0 -1 -0.448 -1 -1 V 2 H 6.744 v 36.748 c 0 0.552 -0.448 1 -1 1 s -1 -0.448 -1 -1 V 1 c 0 -0.552 0.448 -1 1 -1 h 65.735 c 0.553 0 1 0.448 1 1 v 37.748 C 72.479 39.3 72.031 39.748 71.479 39.748 z" style="stroke: none; stroke-width: 1; stroke-dasharray: none; stroke-linecap: butt; stroke-linejoin: miter; stroke-miterlimit: 10; fill: rgb(251,171,126); fill-rule: nonzero; opacity: 1;" transform=" matrix(1 0 0 1 0 0) " stroke-linecap="round" />
	<path d="M 11.526 77.576 c -3.74 0 -6.783 -4.249 -6.783 -9.471 V 38.748 c 0 -0.552 0.448 -1 1 -1 s 1 0.448 1 1 v 29.358 c 0 4.05 2.19 7.471 4.783 7.471 s 4.783 -3.421 4.783 -7.471 V 47.219 c 0 -0.553 0.448 -1 1 -1 s 1 0.447 1 1 v 20.887 C 18.309 73.327 15.267 77.576 11.526 77.576 z" style="stroke: none; stroke-width: 1; stroke-dasharray: none; stroke-linecap: butt; stroke-linejoin: miter; stroke-miterlimit: 10; fill: rgb(251,171,126); fill-rule: nonzero; opacity: 1;" transform=" matrix(1 0 0 1 0 0) " stroke-linecap="round" />
	<path d="M 84.256 90 H 28.874 c -0.552 0 -1 -0.447 -1 -1 V 47.219 c 0 -4.05 -2.19 -7.471 -4.782 -7.471 s -4.783 3.421 -4.783 7.471 c 0 0.553 -0.448 1 -1 1 s -1 -0.447 -1 -1 c 0 -5.223 3.042 -9.471 6.783 -9.471 h 55.382 c 3.739 0 6.782 4.249 6.782 9.471 V 89 C 85.256 89.553 84.809 90 84.256 90 z M 29.874 88 h 53.382 V 47.219 c 0 -4.05 -2.19 -7.471 -4.782 -7.471 H 27.256 c 1.592 1.735 2.618 4.439 2.618 7.471 V 88 z" style="stroke: none; stroke-width: 1; stroke-dasharray: none; stroke-linecap: butt; stroke-linejoin: miter; stroke-miterlimit: 10; fill: rgb(251,171,126); fill-rule: nonzero; opacity: 1;" transform=" matrix(1 0 0 1 0 0) " stroke-linecap="round" />
	<path d="M 28.874 77.576 H 11.526 c -0.552 0 -1 -0.447 -1 -1 s 0.448 -1 1 -1 h 17.348 c 0.552 0 1 0.447 1 1 S 29.426 77.576 28.874 77.576 z" style="stroke: none; stroke-width: 1; stroke-dasharray: none; stroke-linecap: butt; stroke-linejoin: miter; stroke-miterlimit: 10; fill: rgb(251,171,126); fill-rule: nonzero; opacity: 1;" transform=" matrix(1 0 0 1 0 0) " stroke-linecap="round" />
	<path d="M 73.903 54.591 H 39.227 c -0.552 0 -1 -0.447 -1 -1 s 0.448 -1 1 -1 h 34.676 c 0.553 0 1 0.447 1 1 S 74.456 54.591 73.903 54.591 z" style="stroke: none; stroke-width: 1; stroke-dasharray: none; stroke-linecap: butt; stroke-linejoin: miter; stroke-miterlimit: 10; fill: rgb(251,171,126); fill-rule: nonzero; opacity: 1;" transform=" matrix(1 0 0 1 0 0) " stroke-linecap="round" />
	<path d="M 73.903 64.944 H 39.227 c -0.552 0 -1 -0.447 -1 -1 s 0.448 -1 1 -1 h 34.676 c 0.553 0 1 0.447 1 1 S 74.456 64.944 73.903 64.944 z" style="stroke: none; stroke-width: 1; stroke-dasharray: none; stroke-linecap: butt; stroke-linejoin: miter; stroke-miterlimit: 10; fill: rgb(251,171,126); fill-rule: nonzero; opacity: 1;" transform=" matrix(1 0 0 1 0 0) " stroke-linecap="round" />
	<path d="M 73.903 75.297 H 59.933 c -0.553 0 -1 -0.447 -1 -1 s 0.447 -1 1 -1 h 13.971 c 0.553 0 1 0.447 1 1 S 74.456 75.297 73.903 75.297 z" style="stroke: none; stroke-width: 1; stroke-dasharray: none; stroke-linecap: butt; stroke-linejoin: miter; stroke-miterlimit: 10; fill: rgb(251,171,126); fill-rule: nonzero; opacity: 1;" transform=" matrix(1 0 0 1 0 0) " stroke-linecap="round" />
</g>
</svg>