<svg xmlns="http://www.w3.org/2000/svg" viewBox="0 0 48 48" id="Bus"><path d="M15.22 32h17.55c.62 1.74 2.27 3 4.22 3s3.6-1.26 4.22-3H44c.83 0 1.5-.67 1.5-1.5v-9c0-.04-.01-.08-.01-.13 0-.04-.01-.08-.01-.12a2.68 2.68 0 0 0-.07-.27c-.01-.02-.01-.03-.01-.05l-.01-.02-3.99-9.97v-.01c-.05-.12-.12-.24-.2-.34-.02-.02-.04-.05-.06-.07-.09-.1-.18-.19-.29-.26-.11-.07-.23-.13-.35-.17l-.09-.03c-.14-.04-.27-.06-.41-.06H4c-.83 0-1.5.67-1.5 1.5v19c0 .83.67 1.5 1.5 1.5h2.78c.62 1.74 2.27 3 4.22 3s3.6-1.26 4.22-3zM37 32c-.83 0-1.5-.67-1.5-1.5S36.17 29 37 29s1.5.67 1.5 1.5S37.83 32 37 32zm.5-19h1.48l2.8 7H37.5v-7zm-8 0h5v7h-5v-7zm-8 0h5v7h-5v-7zm-8 0h5v7h-5v-7zm-8 0h5v7h-5v-7zm1.28 16H5.5v-6h37v6h-1.28c-.62-1.74-2.27-3-4.22-3s-3.6 1.26-4.22 3H15.22c-.62-1.74-2.27-3-4.22-3s-3.6 1.26-4.22 3zM11 32c-.83 0-1.5-.67-1.5-1.5S10.17 29 11 29s1.5.67 1.5 1.5S11.83 32 11 32zm-8.5 4.5c0 .83.67 1.5 1.5 1.5h40c.83 0 1.5-.67 1.5-1.5S44.83 35 44 35H4c-.83 0-1.5.67-1.5 1.5z" fill="#fbab7e" class="color000000 svgShape"></path></svg>